#N canvas 382 244 742 360 10;
#X obj 34 34 bng 15 250 50 0 empty empty empty 17 7 0 10 -262144 -1
-1;
#X obj 56 216 noteout;
#X msg 28 87 38;
#X floatatom 70 174 5 0 0 0 - - -, f 5;
#X obj 44 142 makenote;
#X msg 148 92 0;
#X floatatom 28 178 5 0 0 0 - - -, f 5;
#X msg 111 91 100;
#X obj 466 19 bng 15 250 50 0 empty empty empty 17 7 0 10 -262144 -1
-1;
#X obj 471 95 bendout;
#X msg 527 64 0;
#X obj 319 22 bng 15 250 50 0 empty empty empty 17 7 0 10 -262144 -1
-1;
#X obj 324 98 bendout;
#X msg 380 67 0;
#X msg 312 62 0;
#X obj 320 132 bng 15 250 50 0 empty empty empty 17 7 0 10 -262144
-1 -1;
#X obj 325 208 bendout;
#X msg 381 177 0;
#X msg 313 172 2;
#X msg 459 59 1;
#X text 540 97 TCHI;
#X text 391 210 DIM;
#X text 389 99 DOM;
#X obj 223 14 tgl 15 0 empty empty empty 17 7 0 10 -262144 -1 -1 0
1;
#X obj 226 140 % 4;
#X floatatom 160 175 5 0 0 0 - - -, f 5;
#X obj 224 198 sel 0;
#X obj 224 235 sel 1;
#X floatatom 170 62 5 0 0 0 - - -, f 5;
#X obj 227 98 + 1;
#X msg 71 90 127;
#X obj 227 59 metro 400;
#X obj 609 121 tgl 15 0 empty empty empty 17 7 0 10 -262144 -1 -1 1
1;
#X obj 604 189 tgl 15 0 empty empty empty 17 7 0 10 -262144 -1 -1 1
1;
#X obj 604 222 route 0 1;
#X obj 499 249 bng 15 250 50 0 empty empty empty 17 7 0 10 -262144
-1 -1;
#X obj 521 431 noteout;
#X msg 493 302 38;
#X floatatom 535 389 5 0 0 0 - - -, f 5;
#X obj 509 357 makenote;
#X floatatom 493 393 5 0 0 0 - - -, f 5;
#X msg 576 306 100;
#X obj 633 304 bendout;
#X text 702 306 TCHI;
#X msg 621 268 0;
#X msg 660 265 2;
#X msg 536 305 100;
#X obj 475 205 delay 190;
#X obj 588 156 metro 1000;
#X connect 0 0 30 0;
#X connect 0 0 2 0;
#X connect 0 0 7 0;
#X connect 0 0 5 0;
#X connect 2 0 4 0;
#X connect 3 0 1 1;
#X connect 4 0 6 0;
#X connect 4 1 3 0;
#X connect 5 0 1 2;
#X connect 6 0 1 0;
#X connect 7 0 4 2;
#X connect 8 0 10 0;
#X connect 8 0 19 0;
#X connect 10 0 9 1;
#X connect 11 0 13 0;
#X connect 11 0 14 0;
#X connect 13 0 12 1;
#X connect 14 0 12 0;
#X connect 15 0 17 0;
#X connect 15 0 18 0;
#X connect 17 0 16 1;
#X connect 18 0 16 0;
#X connect 19 0 9 0;
#X connect 23 0 31 0;
#X connect 24 0 0 0;
#X connect 24 0 25 0;
#X connect 24 0 26 0;
#X connect 24 0 27 0;
#X connect 26 0 11 0;
#X connect 27 0 15 0;
#X connect 28 0 29 1;
#X connect 29 0 24 0;
#X connect 29 0 28 0;
#X connect 30 0 4 1;
#X connect 31 0 29 0;
#X connect 32 0 48 0;
#X connect 33 0 34 0;
#X connect 34 0 44 0;
#X connect 34 1 45 0;
#X connect 35 0 46 0;
#X connect 35 0 37 0;
#X connect 35 0 41 0;
#X connect 37 0 39 0;
#X connect 38 0 36 1;
#X connect 39 0 40 0;
#X connect 39 1 38 0;
#X connect 40 0 36 0;
#X connect 41 0 39 2;
#X connect 44 0 42 0;
#X connect 45 0 42 0;
#X connect 46 0 39 1;
#X connect 47 0 35 0;
#X connect 48 0 33 0;
#X connect 48 0 47 0;
