#N canvas 243 107 742 360 10;
#X obj 23 76 bng 15 250 50 0 empty empty empty 17 7 0 10 -262144 -1
-1;
#X obj 56 266 noteout;
#X msg 28 137 38;
#X floatatom 70 224 5 0 0 0 - - -;
#X obj 44 192 makenote;
#X floatatom 28 228 5 0 0 0 - - -;
#X msg 111 141 100;
#X obj 466 19 bng 15 250 50 0 empty empty empty 17 7 0 10 -262144 -1
-1;
#X obj 471 95 bendout;
#X msg 527 64 0;
#X obj 319 22 bng 15 250 50 0 empty empty empty 17 7 0 10 -262144 -1
-1;
#X obj 324 98 bendout;
#X msg 380 67 0;
#X msg 312 62 0;
#X obj 320 132 bng 15 250 50 0 empty empty empty 17 7 0 10 -262144
-1 -1;
#X obj 325 208 bendout;
#X msg 381 177 0;
#X msg 313 172 2;
#X msg 459 59 1;
#X msg 71 140 127;
#X obj 20 31 metro 1000;
#X obj 23 5 tgl 15 0 empty empty empty 17 7 0 10 -262144 -1 -1 0 1
;
#X obj 25 103 t b b b b;
#X msg 148 141 3;
#X connect 0 0 22 0;
#X connect 2 0 4 0;
#X connect 3 0 1 1;
#X connect 4 0 5 0;
#X connect 4 1 3 0;
#X connect 5 0 1 0;
#X connect 6 0 4 2;
#X connect 7 0 9 0;
#X connect 7 0 18 0;
#X connect 9 0 8 1;
#X connect 10 0 12 0;
#X connect 10 0 13 0;
#X connect 12 0 11 1;
#X connect 13 0 11 0;
#X connect 14 0 16 0;
#X connect 14 0 17 0;
#X connect 16 0 15 1;
#X connect 17 0 15 0;
#X connect 18 0 8 0;
#X connect 19 0 4 1;
#X connect 20 0 0 0;
#X connect 21 0 20 0;
#X connect 22 0 2 0;
#X connect 22 1 19 0;
#X connect 22 2 6 0;
#X connect 22 3 23 0;
#X connect 23 0 1 2;
