#N canvas 282 141 742 360 10;
#X obj 23 26 bng 15 250 50 0 empty empty empty 17 7 0 10 -262144 -1
-1;
#X obj 56 216 noteout;
#X msg 28 87 38;
#X msg 71 90 127;
#X floatatom 70 174 5 0 0 0 - - -, f 5;
#X obj 44 142 makenote;
#X msg 148 92 0;
#X floatatom 28 178 5 0 0 0 - - -, f 5;
#X msg 111 91 100;
#X obj 466 19 bng 15 250 50 0 empty empty empty 17 7 0 10 -262144 -1
-1;
#X obj 471 95 bendout;
#X msg 527 64 0;
#X obj 319 22 bng 15 250 50 0 empty empty empty 17 7 0 10 -262144 -1
-1;
#X obj 324 98 bendout;
#X msg 380 67 0;
#X msg 312 62 0;
#X obj 320 132 bng 15 250 50 0 empty empty empty 17 7 0 10 -262144
-1 -1;
#X obj 325 208 bendout;
#X msg 381 177 0;
#X msg 313 172 2;
#X msg 459 59 1;
#X connect 0 0 3 0;
#X connect 0 0 2 0;
#X connect 0 0 8 0;
#X connect 0 0 6 0;
#X connect 2 0 5 0;
#X connect 3 0 5 1;
#X connect 4 0 1 1;
#X connect 5 0 7 0;
#X connect 5 1 4 0;
#X connect 6 0 1 2;
#X connect 7 0 1 0;
#X connect 8 0 5 2;
#X connect 9 0 11 0;
#X connect 9 0 20 0;
#X connect 11 0 10 1;
#X connect 12 0 14 0;
#X connect 12 0 15 0;
#X connect 14 0 13 1;
#X connect 15 0 13 0;
#X connect 16 0 18 0;
#X connect 16 0 19 0;
#X connect 18 0 17 1;
#X connect 19 0 17 0;
#X connect 20 0 10 0;
